{"title":"The wolverine (2013) Hindi-Cam Audio Dubbed TSRip--[SAM]--.","uid":9024359,"size":819761718,"categoryP":"video","categoryS":"movies","magnet":"?xt=urn:btih:51baea9fde2f757fb8e90fff9c0ca01f8833326a&amp;dn=The+wolverine+%282013%29+Hindi-Cam+Audio+Dubbed+TSRip--%5BSAM%5D--.&amp;tr=udp%3A%2F%2Ftracker.openbittorrent.com%3A80&amp;tr=udp%3A%2F%2Fopen.demonii.com%3A1337&amp;tr=udp%3A%2F%2Ftracker.coppersurfer.tk%3A6969&amp;tr=udp%3A%2F%2Fexodus.desync.com%3A6969","seeders":0,"leechers":0,"uploader":"olddilli","files":18,"time":1381337223,"description":"Screenshots\n &lt;a href=&quot;\nhttp://s916.photobucket.com/user/olddilli/slideshow/&quot; rel=&quot;nofollow&quot; target=&quot;_NEW&quot;&gt;\nhttp://s916.photobucket.com/user/olddilli/slideshow/&lt;/a&gt;\n\n\nSample\n\n\n\nInfo\n\nGeneral\nComplete name                            : The wolverine (2013) Hindi-Cam Audio Dubbed TSRip--[SAM]--The wolverine (2013) Hindi-Cam Audio Dubbed TSRip--[SAM]--.mp4\nFormat                                   : MPEG-4\nFormat profile                           : Base Media\nCodec ID                                 : isom\nFile size                                : 750 MiB\nDuration                                 : 1h 55mn\nOverall bit rate                         : 906 Kbps\nEncoded date                             : UTC 2013-08-31 18:23:14\nTagged date                              : UTC 2013-08-31 18:23:14\n\nVideo\nID                                       : 2\nFormat                                   : MPEG-4 Visual\nFormat settings, BVOP                    : Yes\nFormat settings, QPel                    : No\nFormat settings, GMC                     : No warppoints\nFormat settings, Matrix                  : Default (H.263)\nCodec ID                                 : 20\nDuration                                 : 1h 55mn\nBit rate mode                            : Constant\nBit rate                                 : 800 Kbps\nWidth                                    : 640 pixels\nHeight                                   : 360 pixels\nDisplay aspect ratio                     : 16:9\nFrame rate mode                          : Constant\nFrame rate                               : 25.000 fps\nColor space                              : YUV\nBit depth                                : 8 bits\nScan type                                : Progressive\nCompression mode                         : Lossy\nBits/(Pixel*Frame)                       : 0.139\nStream size                              : 662 MiB (88%)\nWriting library                          : Intel(R) MPEG-4 encoder based on Intel(R) IPP 6.1 build 137.20[6.1.137.763]\nLanguage                                 : English\n\nAudio\nID                                       : 1\nFormat                                   : AAC\nFormat/Info                              : Advanced Audio Codec\nFormat profile                           : LC\nCodec ID                                 : 40\nDuration                                 : 1h 55mn\nBit rate mode                            : Constant\nBit rate                                 : 101 Kbps\nChannel count                            : 2 channels\nChannel positions                        : Front: L R\nSampling rate                            : 44.1 KHz\nCompression mode                         : Lossy\nStream size                              : 83.6 MiB (11%)\nLanguage                                 : English\n\n","torrent":{"xt":"urn:btih:51baea9fde2f757fb8e90fff9c0ca01f8833326a","amp;dn":"The+wolverine+%282013%29+Hindi-Cam+Audio+Dubbed+TSRip--%5BSAM%5D--.","amp;tr":["udp%3A%2F%2Ftracker.openbittorrent.com%3A80","udp%3A%2F%2Fopen.demonii.com%3A1337","udp%3A%2F%2Ftracker.coppersurfer.tk%3A6969","udp%3A%2F%2Fexodus.desync.com%3A6969"],"infoHash":"51baea9fde2f757fb8e90fff9c0ca01f8833326a","infoHashBuffer":{"type":"Buffer","data":[81,186,234,159,222,47,117,127,184,233,15,255,156,12,160,31,136,51,50,106]},"announce":[],"urlList":[]}}